<svg xmlns="http://www.w3.org/2000/svg" viewBox="0 0 64 64">
  <rect width="64" height="64" rx="14" fill="#14532d"/>
  <path d="M45 19 C51 25 47 35 34 46 C27 52 19 55 15 51 C11 47 14 39 20 32 C29 22 39 15 45 19 Z" fill="#fb923c"/>
  <path d="M24 38 L31 43 M31 31 L38 36" stroke="#ea580c" stroke-width="2.5" stroke-linecap="round" fill="none"/>
  <path d="M46 18 C44 10 47 5 54 3 C52 9 51 14 48 18 Z" fill="#4ade80"/>
  <path d="M48 20 C55 16 60 17 62 22 C56 24 51 23 48 21 Z" fill="#22c55e"/>
  <path d="M45 17 C41 11 41 6 45 2 C48 7 48 13 47 17 Z" fill="#86efac"/>
</svg>
